<?xml version="1.0" encoding="UTF-8"?>
<svg width="499.99966" height="500.00006" version="1.1" viewBox="0 0 132.29158 132.29168" xmlns="http://www.w3.org/2000/svg">
 <g transform="translate(995.68756,1370.9073)">
  <g transform="matrix(.03914805 0 0 .03914809 -930.91369 -1307.9277)">
   <ellipse cx="35.044811" cy="80.877625" rx="1618.9891" ry="1618.9882" stroke="#000" stroke-dasharray="423.851, 423.851" stroke-dashoffset="211.925" stroke-miterlimit="0" stroke-width="141.284"/>
   <circle cx="35.159145" cy="80.99295" r="1463.4409" fill="#eeaf16" stroke-width="0" style="paint-order:normal"/>
   <g stroke="#000">
    <path d="m371.21041 1513.6812c-654.45968-1378.80016 354.34151-1048.78575 639.49789-1001.44787 24.6957 109.38921 28.4732 144.08831 12.855 254.46496 139.1709-167.74584 447.6118-455.31217 54.3388-888.54682-150.1516-165.40894-53.3534-224.73078-195.29771-456.15532-172.33165-280.9678-453.41081-586.84755-1113.45267-782.81145" fill="none" stroke-width="6.35"/>
    <path d="m689.60883 454.25129c-166.54276-112.21037-211.31986-253.35403-461.98062-342.52726 41.52721-16.57196 125.93457 0.26452 198.18559 8.01272 35.02912 3.75653 189.4193-22.740211 374.39763-199.623771 93.57336-89.478529 144.20399-134.104279 212.87367-130.587729" fill="none" stroke-width="6.35"/>
    <path transform="scale(.26458333)" d="m3891.7629 2830.9044c31.0535-234.3469 33.3128-389.241 8.1961-561.9085-14.9512-102.784-62.991-335.1178-70.8111-342.4625-2.6132-2.4543-32.6514-9.3723-66.7514-15.3732-34.1-6.001-143.9-27.7011-244-48.2225-444.0121-91.0265-615.8379-122.304-833.9134-151.7973-86.9311-11.7569-72.2193-4.8536-177.3145-83.2023-123.7139-92.2289-235.0001-192.9386-434.7721-393.4517-256.6051-257.55712-359.4746-351.0126-504.2966-458.14615-182.1995-134.78392-408.0614-257.00668-627.70334-339.67512l-36-13.5496 26-5.36676c34.681-7.1586 189.75894-7.92636 260.00004-1.2872 29.7 2.80724 132.3 15.07636 228 27.26472 234.7461 29.89732 272.2158 29.45436 412.0082-4.8708 269.2616-66.11556 566.3089-217.4824 859.9917-438.2272804 131.2706-98.66867964 218.4744-173.7703596 390-335.8757196 208.9977-197.51935 292.627-268.64496 396-336.79244 106.0837-69.93444 198.2075-103.13712 304.1483-109.61917l40.5286-2.47976 15.3293 27.56739c53.5274 96.26065 126.6756 193.33729 249.8391 331.56738 402.1694 451.36668 625.1621 876.55368 685.9909 1307.99999 16.1457 114.51836 18.2043 297.38592 4.5704 406.00002-44.6856 355.9874-192.1826 685.1079-476.7376 1063.7779-80.2566 106.801-156.7172 200.6624-299.8836 368.1306l-111.057 129.9086zm144.8433-315.9085c68.388-84.1902 157.1209-205.222 219.9413-300 237.0756-357.6796 368.8993-693.1785 403.9204-1028 7.4753-71.4673 8.4706-223.9009 1.8936-290.00002-10.743-107.96775-36.5219-226.43775-70.9372-325.99999-21.8497-63.2104-91.3132-221.4284-97.3958-221.83984-1.3024-0.088-5.4352 26.38984-9.184 58.83984-64.5607 558.84595-200.5217 850.75811-430.448 924.18391-47.8078 15.2672-72.6819 18.7005-134 18.4954-87.8047-0.2936-176.847-19.7865-282.3067-61.8015-22.3809-8.9165-41.5561-15.3483-42.6117-14.2928-1.0555 1.0555 13.3541 22.2807 32.0213 47.1671 188.3404 251.0879 307.5227 544.0631 346.686 852.2273 11.6653 91.7903 16.2111 172.4588 16.2111 287.6721 0 60.1606 1.5219 103.453 3.6096 102.6818 1.9852-0.7333 21.1553-22.9333 42.6001-49.3333zm-280.6797-2435.000011c-8.5313-14.49804-40.0163-52.826279-60.3708-73.4922794-46.2106-46.9177596-92.5357-77.1681996-147.1592-96.0951996-28.7258-9.95348-37.3204-11.07328-84-10.94448-42.8316 0.1184-56.0543 1.63812-74.9949 8.62052-86.8881 32.0312-118.4915 101.4335996-61.4195 134.879999 43.4193 25.44544 134.5232 28.68216 214.4144 7.61768 33.7854-8.908 50.6058-11.06488 86-11.02776 50.0398 0.0524 74.4245 7.23644 106 31.22888 18.9008 14.3616 26.4643 17.598 21.53 9.21264z" fill="#ffc933" stroke-width="12"/>
   </g>
   <path d="m994.30416 22.754166c-53.29526-77.703844-120.88387-47.000545-121.17917-22.754166-0.18512 15.199846 33.90381 21.346052 61.17011 13.594165 22.08248-6.2781122 42.15114-7.4479335 60.00906 9.160001z"/>
   <path d="m1188.9052 92.604166c-22.6473 216.302384-81.5502 312.056214-238.02482 244.320014 114.56852 144.78994 105.66492 286.90798 105.53472 341.73206 283.6192-340.37557 147.6595-550.06874 132.4901-586.052074z"/>
   <path d="m1013.0895 513.68854s-40.74731-168.12887-169.84362-202.72012c-88.24195-23.64436-194.56745-21.4313-327.46337-104.775-54.24105-34.01646-212.59487-75.92071-288.1543-94.46939 73.70646 23.79074 222.5271 68.30779 284.8697 109.46764 97.72794 64.52196 127.68135 65.81761 230.1875 87.57708 108.25929 22.98071 183.8886 74.65358 215.10624 189.70625z" stroke="#000" stroke-width="6.27063"/>
   <path transform="scale(.26458333)" d="m-508.00797 5796.4128c-774.43453-81.6013-1628.56923-383.5704-2303.50103-811.8644-1953.3979-1239.5744-2928.6167-3508.0996-2479.1637-5761.80919 381.8699-1914.82541 1760.7969-3502.82461 3608.1919-4141.39061 193.9442-67.0383 535.2062-163.8804 703.65859-192.2277l105.06444-17.6803 331.76399 103.4695c943.85193 294.3657 1747.48028 713.511 2374.55578 1188.0435 560.801 424.38 1042.2675 948.0114 1420.7466 1552.4962 277.0965 442.5622 334.2705 580.4078 419.1692 1007.3401 41.9497 210.9534 78.1175 317.064 120.498 421.14984 4.2801 10.512 12.523 28.0711 21.0451 46.74167-29.9597-0.52107-61.9187-2.53505-91.2625 1.86527-168.6515 25.29059-323.2067 139.44618-698.8669 490.72058-401.9123 375.822239-809.6847 625.89711-1173.1658 721.10191-145.9416 38.22576-203.5843 41.90427-453.5397 10.72747-229.7384-28.65504-477.78933-38.34416-541.59493-11.1056l-46.4008 19.80864 114.15816 40.24443c267.49117 94.29923 539.05977 253.89701 742.88617 422.71541 57.2 47.37552 225.6929 211.48808 375.2929 357.78028 149.6 146.2923 314.1659 303.892 369.8122 346.8565 0 0 90.3641 65.4859 128.1465 98.9418-94.9416-3.0336-162.5239-13.7368-356.7678-20.1343-609.1126-20.0613-1035.0369 116.079-1277.08077 375.9959-129.73402 139.3139-217.04825 284.7159-278.47856 487.7467-212.24703 701.4889 209.37442 1996.7516 622.93873 2895.1135 63.5506 138.0471 116.5679 244.2177 124.8152 263.5474-20.7375 4.4743-262.8601 56.565-480.21386 89.5307-171.48944 26.0096-312.55686 45.842-687.2929 49.9129-258.646693 2.8097-485.79366-11.8792-715.41421-35.6381z" fill="#0d4411" stroke="#000" stroke-width="14"/>
   <path d="m160.73437 708.28957c-783.02422-152.19557-836.34453-705.3910293-842.03644-1309.95206-188.13718 388.74366-193.538 536.360699-83.89057 948.52489-274.62876-192.64099-285.58156-381.157986-362.59376-608.27073 45.066 608.90076 98.9242 752.60988 455.87703 1105.42915-309.34279-47.09629-523.82643-338.18004-660.40003-601.92707 149.5575 559.23676 228.3387 688.11319 624.81358 858.04375-91.8597 23.8983-203.11695 17.8169-335.71058-21.7584l130.2137 124.9752c135.44195 52.8759 243.35689 60.1752 455.30366 76.4958-36.09863 56.3788-65.02516 71.7592-198.618 97.4967 263.46257 135.5737 571.372981 266.568 1024.49752 131.8975-60.76151-132.5908-116.44378-267.2978-160.33497-406.9179-255.092202 83.9531-308.94485 152.6269-676.168-41.215 282.92698 60.372 371.83953 63.3837 659.47395-16.2718l-35.69078-210.98542c-550.35183-52.18067-649.92866-208.86231-839.70484-754.027624 178.80788 463.027194 436.10497 627.531794 840.99978 709.557804z"/>
   <path d="m-335.2629-1156.0209c-422.14169 678.22509-427.63642 1313.93417 259.856651 1742.60214-541.873701-557.843089-527.702641-1031.09691-259.856651-1742.60214z"/>
   <path d="m-607.35103-1080.2276c-434.94937 337.68666-371.38726 718.78416-276.09271 1246.38593-153.98706-323.64277-597.04086-985.81156 276.09271-1246.38593z"/>
   <path d="m-1036.3068 576.32864c-143.7693-204.32099-301.5955-346.08904-391.9749-787.9953l159.34-273.05c1.4538 392.420825 74.1127 601.66655 232.6349 1061.0453z"/>
   <path d="m128.05833-372.13646c-64.192567-131.32027-149.549015-213.62944-231.90729-302.88176l258.62883 169.0065z"/>
   <path d="m478.68242-154.51254 84.61367-77.20666 223.19159 71.90203c-104.97919-5.99353-185.78608-16.89693-307.80526 5.30463z"/>
   <path d="m539.74999-302.15416-49.2125 86.25416c-32.34748-16.54605-59.46067-22.22088-55.5625 36.5125l-78.84583 10.05417c-16.55079-52.23106-34.45709-31.26456-52.3875-8.99583l-73.025-49.74167c12.32924-26.50739 23.22682-52.23929-30.69166-42.8625l-21.16667-85.19583c27.36134-13.04655 46.12992-28.63188 12.17083-59.79583l50.80001-88.37084z" fill="#b4b4b4" stroke="#000" stroke-width="6.35"/>
   <path d="m512.0541-345.94088a145.49088 145.49088 0 0 1-139.54031 128.8664 145.49088 145.49088 0 0 1-148.07516-118.96133 145.49088 145.49088 0 0 1 95.76931-164.03137" fill="#767074" stroke="#000" stroke-width="6.35"/>
   <path d="m477.04155-362.47916a109.53529 109.53529 0 0 1-100.81481 109.18761 109.53529 109.53529 0 0 1-116.86724-91.802 109.53529 109.53529 0 0 1 82.2064-123.80496"/>
   <circle cx="368.04138" cy="-361.88062" r="65.831711" fill="#b4b4b4" stroke="#b4b4b4" stroke-dasharray="71.4624, 35.7312" stroke-dashoffset="53.5968" stroke-width="35.7312"/>
   <circle cx="367.50626" cy="-362.47916" r="53.710419" fill="#767074" stroke="#000" stroke-width="6.35"/>
   <circle cx="367.50626" cy="-362.47916" r="24.870832"/>
   <path d="m836.66051-215.52614c-129.02177-46.05709-202.20275-73.26762-268.08936-107.8469-158.92613-83.40923-478.952401-408.15579-646.09468-469.77276-135.21889-49.84842-231.23323-26.16917-306.51859-16.92152 93.32435 0.10587 177.10099 20.79461 291.150528 61.53201 132.99072 47.503 435.232262 425.13611 699.887112 488.37791 87.70217 20.95727 174.72005 40.78069 229.66499 44.63126z"/>
  </g>
 </g>
</svg>
